PathFileType	4	(X/Y/Z)	C:\Git\research_data\ESMAC_2023\simulations\TD07\pre\dynamic21_l\marker_experimental.trc
DataRate	CameraRate	NumFrames	NumMarkers	Units	OrigDataRate	OrigDataStartFrame	OrigNumFrames
200.000000	200.000000	5	54	mm	200.000000	0	385
Frame#	Time	C7			T10			CLAV			STRN			RBAK			LASI			RASI			SACR			RT2			RT3			RKNE			RS1			RS2			RS3			RANK			RHEE			RTOE			RM5D			LT1			LT2			LT3			LKNE			LS1			LS2			LS3			LANK			LHEE			LTOE			LM5D			RT1			*30			*31			*32			*33			*34			*35			*36			*37			*38			*39			*40			*41			*42			*43			*44			*45			*46			*47			*48			*49			*50			*51			*52			*53			
		X1	Y1	Z1	X2	Y2	Z2	X3	Y3	Z3	X4	Y4	Z4	X5	Y5	Z5	X6	Y6	Z6	X7	Y7	Z7	X8	Y8	Z8	X9	Y9	Z9	X10	Y10	Z10	X11	Y11	Z11	X12	Y12	Z12	X13	Y13	Z13	X14	Y14	Z14	X15	Y15	Z15	X16	Y16	Z16	X17	Y17	Z17	X18	Y18	Z18	X19	Y19	Z19	X20	Y20	Z20	X21	Y21	Z21	X22	Y22	Z22	X23	Y23	Z23	X24	Y24	Z24	X25	Y25	Z25	X26	Y26	Z26	X27	Y27	Z27	X28	Y28	Z28	X29	Y29	Z29	X30	Y30	Z30	X31	Y31	Z31	X32	Y32	Z32	X33	Y33	Z33	X34	Y34	Z34	X35	Y35	Z35	X36	Y36	Z36	X37	Y37	Z37	X38	Y38	Z38	X39	Y39	Z39	X40	Y40	Z40	X41	Y41	Z41	X42	Y42	Z42	X43	Y43	Z43	X44	Y44	Z44	X45	Y45	Z45	X46	Y46	Z46	X47	Y47	Z47	X48	Y48	Z48	X49	Y49	Z49	X50	Y50	Z50	X51	Y51	Z51	X52	Y52	Z52	X53	Y53	Z53	X54	Y54	Z54	

1	0	-471.7366333007814	1248.025512695312	266.8560180664061	-492.8952636718751	1028.048583984375	272.7599182128905	-346.3982238769532	1197.771484375	247.3883666992187	-291.4750366210939	1065.5068359375	251.1016235351562	-484.9644775390626	1123.260864257812	381.8085937499999	-357.6753234863282	830.24853515625	137.275161743164	-371.2522888183595	825.1563110351562	392.2346496582031	-518.9356689453125	867.6624755859375	257.5948181152343	-498.6523437500001	523.5213623046875	382.8676452636718	-447.0095214843751	520.70703125	387.1918029785156	-457.7882995605469	415.1142272949219	362.5809631347656	-517.1731567382814	322.9896545410156	379.3587036132811	-560.6245117187501	274.1562805175781	378.4364624023436	-510.6305236816407	258.1444702148437	375.367218017578	-574.4936523437501	69.35316467285153	340.9517517089843	-633.8113403320312	40.73249435424801	305.4006958007811	-434.9712829589844	34.95977401733396	305.6332397460937	-512.5163574218751	25.47469902038571	352.6081542968749	-322.3998413085938	652.747314453125	85.88594055175776	-326.1713867187501	585.8775024414062	81.92643737792963	-280.5836181640626	602.666259765625	99.08526611328119	-277.5542297363281	441.1966857910156	101.4005126953124	-267.4001159667969	309.3107299804688	94.03486633300777	-295.71044921875	249.8832092285156	96.93213653564447	-244.1024475097657	246.8359680175781	100.4664154052734	-258.1999206542969	63.58030319213866	129.3335723876953	-277.1104431152344	40.52283477783202	182.6664428710937	-102.3015899658203	69.03705596923828	99.95920562744139	-178.747543334961	29.19336128234862	87.17153167724607	nan	nan	nan	nan	nan	nan	nan	nan	nan	nan	nan	nan	nan	nan	nan	nan	nan	nan	nan	nan	nan	nan	nan	nan	nan	nan	nan	nan	nan	nan	nan	nan	nan	nan	nan	nan	nan	nan	nan	nan	nan	nan	nan	nan	nan	nan	nan	nan	nan	nan	nan	nan	nan	nan	nan	nan	nan	nan	nan	nan	nan	nan	nan	nan	nan	nan	nan	nan	nan	nan	nan	nan	nan	nan	nan	
2	0.005	-466.116912841797	1246.344482421875	267.1296386718749	-487.5589599609376	1026.498901367188	272.2850036621093	-340.856903076172	1195.977905273438	247.3294830322265	-285.856170654297	1063.801391601562	250.9198150634765	-478.7590942382814	1121.447143554688	382.2790222167968	-351.5746765136719	827.6854858398438	137.2071838378906	-365.9007263183595	824.526123046875	391.8616027832031	-513.237060546875	866.1046752929688	256.327667236328	-495.0896301269532	523.220703125	382.8897094726561	-443.5247802734376	520.129638671875	387.1326599121093	-455.3832092285157	414.599365234375	362.6905517578124	-515.0728149414064	322.7121276855468	379.390655517578	-559.2587280273439	274.4643554687499	378.4995117187499	-509.0704345703126	257.9720153808593	375.4621582031249	-574.3425903320314	69.50456237792966	340.9190368652343	-633.7341918945312	41.03376388549801	305.2875061035155	-434.8615417480469	34.90639495849607	305.7058715820312	-512.5140991210939	25.33078956604001	352.5523986816405	-318.5014343261719	649.1350708007812	85.42035675048822	-322.6243286132813	582.3718872070312	82.12059020996088	-276.6485290527344	598.8724975585938	98.65174865722651	-271.5889892578125	439.6339416503906	102.6058654785156	-257.4515686035156	309.1813354492188	93.81510162353511	-283.8042907714844	248.9564819335937	96.07997131347651	-232.1289520263672	247.7142333984375	99.62192535400386	-240.1743774414063	64.59777832031249	126.4769821166992	-258.5923156738282	40.62551498413085	179.3946685791015	-84.39931488037111	73.24993133544922	98.08012390136717	-159.5869140625	32.22100448608398	84.61283874511716	nan	nan	nan	nan	nan	nan	nan	nan	nan	nan	nan	nan	nan	nan	nan	nan	nan	nan	nan	nan	nan	nan	nan	nan	nan	nan	nan	nan	nan	nan	nan	nan	nan	nan	nan	nan	nan	nan	nan	nan	nan	nan	nan	nan	nan	nan	nan	nan	nan	nan	nan	nan	nan	nan	nan	nan	nan	nan	nan	nan	nan	nan	nan	nan	nan	nan	nan	nan	nan	nan	nan	nan	nan	nan	nan	
3	0.01	-460.4553222656251	1244.673217773438	267.3437499999999	-482.1559448242189	1024.946899414062	271.8000183105468	-335.2691955566407	1194.204956054688	247.219009399414	-280.1965332031251	1062.109008789062	250.6966705322265	-472.5366210937501	1119.651000976562	382.6815490722655	-345.4635314941407	825.1837158203125	137.0958404541015	-360.4760742187501	823.8693237304688	391.4783020019531	-507.4940490722657	864.5340576171875	255.1030120849609	-491.473602294922	522.939208984375	382.917510986328	-439.977020263672	519.560546875	387.0597534179687	-452.9120788574219	414.0946350097656	362.7887268066406	-512.9663085937501	322.4787597656249	379.407257080078	-557.8360595703126	274.7899475097656	378.5487060546874	-507.4960632324219	257.8199462890624	375.5331420898436	-574.1827392578126	69.705207824707	340.8759765624999	-633.6476440429688	41.39846420288082	305.1531982421874	-434.7538757324219	34.85347747802732	305.7724609374999	-512.5101318359376	25.21427536010739	352.4909057617186	-314.4137573242188	645.5960083007812	85.0167617797851	-318.8594970703126	578.9113159179688	82.33810424804682	-272.5506896972657	595.1722412109375	98.3076553344726	-265.4552612304688	438.1318054199219	103.709716796875	-247.5257415771485	309.0828857421875	93.5775985717773	-271.9916687011719	248.1332855224609	95.17587280273432	-220.3015594482422	248.5801544189453	98.81817626953121	-222.6378479003907	65.59974670410155	123.7621688842773	-240.6189422607422	40.74986267089842	176.2558593749999	-66.97414398193361	77.35842895507812	96.41861724853514	-140.9644927978516	35.19297409057616	82.2314529418945	nan	nan	nan	nan	nan	nan	nan	nan	nan	nan	nan	nan	nan	nan	nan	nan	nan	nan	nan	nan	nan	nan	nan	nan	nan	nan	nan	nan	nan	nan	nan	nan	nan	nan	nan	nan	nan	nan	nan	nan	nan	nan	nan	nan	nan	nan	nan	nan	nan	nan	nan	nan	nan	nan	nan	nan	nan	nan	nan	nan	nan	nan	nan	nan	nan	nan	nan	nan	nan	nan	nan	nan	nan	nan	nan	
4	0.015	-454.751922607422	1243.01171875	267.4983520507812	-476.6862792968751	1023.392761230469	271.3049316406249	-329.6351318359376	1192.45263671875	247.0569305419921	-274.4961547851564	1060.429809570312	250.4321899414062	-466.2969970703126	1117.872192382812	383.0162048339843	-339.3418273925782	822.7432861328125	136.9411315917968	-354.978240966797	823.1859741210938	391.0847167968749	-501.7066955566407	862.9508056640625	253.9208984374999	-487.8043212890626	522.6768188476562	382.9510498046874	-436.366424560547	518.9998779296875	386.9731750488281	-450.3748779296876	413.6000061035156	362.8754882812499	-510.8534545898438	322.2894287109374	379.4085083007811	-556.3557128906251	275.1320495605468	378.5839843749999	-505.9075012207032	257.6882934570312	375.5802307128905	-574.0140991210939	69.9550857543945	340.8226013183593	-633.5518188476562	41.82664108276364	304.9979553222655	-434.6482543945313	34.8009223937988	305.8331604003906	-512.5043334960939	25.12516403198239	352.4237670898436	-310.1353149414063	642.1320190429688	84.67562866210932	-314.8747253417969	575.4979858398438	82.57921600341791	-268.2876586914063	591.5677490234375	98.05315399169918	-259.153076171875	436.6902160644531	104.7120285034179	-237.6228942871094	309.0150451660156	93.32241058349605	-260.2731018066406	247.413101196289	94.22033691406246	-208.6205291748047	249.4332427978516	98.05523681640621	-205.5905151367188	66.58559417724608	121.1893920898437	-223.1904602050782	40.89528656005858	173.2505187988281	-50.02638244628908	81.36141204833984	94.97470092773436	-122.880485534668	38.10822677612304	80.02768707275388	nan	nan	nan	nan	nan	nan	nan	nan	nan	nan	nan	nan	nan	nan	nan	nan	nan	nan	nan	nan	nan	nan	nan	nan	nan	nan	nan	nan	nan	nan	nan	nan	nan	nan	nan	nan	nan	nan	nan	nan	nan	nan	nan	nan	nan	nan	nan	nan	nan	nan	nan	nan	nan	nan	nan	nan	nan	nan	nan	nan	nan	nan	nan	nan	nan	nan	nan	nan	nan	nan	nan	nan	nan	nan	nan	
5	0.02	-449.0066528320314	1241.359985351562	267.5934448242187	-471.149871826172	1021.836364746094	270.7997741699218	-323.9546813964845	1190.720825195312	246.8432006835937	-268.7549743652345	1058.763916015625	250.1263275146484	-460.0402221679689	1116.11083984375	383.2829895019531	-333.2094726562501	820.3643798828125	136.7430419921874	-349.4071350097657	822.475830078125	390.6809387207031	-495.8748474121095	861.3551025390625	252.7813568115234	-484.082000732422	522.4335327148438	382.9899291992186	-432.6934204101564	518.447509765625	386.8730773925781	-447.7715454101563	413.1153869628906	362.9508666992187	-508.7342834472657	322.1440429687499	379.3945312499999	-554.8177490234376	275.4898681640624	378.6052246093749	-504.3048400878907	257.5772399902343	375.603790283203	-573.8364868164064	70.2541809082031	340.7590942382811	-633.446533203125	42.31840515136715	304.8221435546874	-434.5445251464844	34.74850845336911	305.8881530761718	-512.4965820312501	25.06341171264645	352.3511352539061	-305.6623535156251	638.7481079101562	84.39821624755854	-310.6643981933594	572.1378784179688	82.84420776367182	-263.8530578613282	588.0646362304688	97.88868713378902	-252.6824645996094	435.3091735839844	105.6127471923828	-227.7437286376954	308.9767761230469	93.04975128173824	-248.6500244140626	246.7943420410156	93.21487426757808	-197.0864410400391	250.2721405029297	97.33332061767574	-189.0328979492188	67.55361175537108	118.7593002319336	-206.3071899414063	41.06018447875975	170.3798675537109	-33.55691528320315	85.25569152832031	93.74831390380859	-105.3354110717774	40.96382904052734	78.00241851806639	nan	nan	nan	nan	nan	nan	nan	nan	nan	nan	nan	nan	nan	nan	nan	nan	nan	nan	nan	nan	nan	nan	nan	nan	nan	nan	nan	nan	nan	nan	nan	nan	nan	nan	nan	nan	nan	nan	nan	nan	nan	nan	nan	nan	nan	nan	nan	nan	nan	nan	nan	nan	nan	nan	nan	nan	nan	nan	nan	nan	nan	nan	nan	nan	nan	nan	nan	nan	nan	nan	nan	nan	nan	nan	nan	
